<?xml version="1.0" encoding="UTF-8"?>
<!DOCTYPE svg PUBLIC "-//W3C//DTD SVG 1.1//EN" "http://www.w3.org/Graphics/SVG/1.1/DTD/svg11.dtd">
<!-- Creator: CorelDRAW X8 -->
<svg xmlns="http://www.w3.org/2000/svg" xml:space="preserve" width="677px" height="270px" version="1.1" style="shape-rendering:geometricPrecision; text-rendering:geometricPrecision; image-rendering:optimizeQuality; fill-rule:evenodd; clip-rule:evenodd"
viewBox="0 0 481 192"
 xmlns:xlink="http://www.w3.org/1999/xlink">
 <defs>
  <style type="text/css">
   <![CDATA[
    .fil1 {fill:#FEFEFE}
    .fil0 {fill:#002147}
   ]]>
  </style>
 </defs>
 <g id="Layer_x0020_1">
  <metadata id="CorelCorpID_0Corel-Layer"/>
  <rect class="fil0" width="481" height="192"/>
  <g id="_794831352">
   <path class="fil1" d="M181 131c-13,24 -38,39 -67,39 -18,0 -34,-6 -47,-16l23 -9c7,3 15,5 24,5 20,0 38,-10 48,-26l19 7z"/>
   <path class="fil1" d="M114 16c29,0 54,15 67,39l-19 7c-10,-16 -28,-26 -48,-26 -29,0 -53,22 -57,50l-20 8c0,0 0,-1 0,-1 0,-43 34,-77 77,-77z"/>
   <path class="fil1" d="M142 56c0,2 1,3 1,4l2 5c0,1 1,2 2,3l-107 42c-3,1 -5,0 -6,-2l-1 -3c-1,-2 0,-5 2,-6l107 -43z"/>
   <path class="fil1" d="M138 83c0,1 0,3 0,4l2 4c1,1 1,2 2,3l-107 43c-2,1 -5,0 -6,-3l-1 -2c-1,-3 0,-5 3,-6l107 -43z"/>
   <path class="fil1" d="M28 122l111 -44 0 2c0,0 -1,1 -1,2l-108 43c-3,1 -4,4 -3,7l1 3c1,3 5,4 7,3l108 -43c1,0 2,1 3,1l0 1 -111 44c-4,2 -8,0 -10,-4l-2 -5c-1,-4 1,-8 5,-10z"/>
   <path class="fil1" d="M133 110c0,2 0,3 1,4l2 4c0,2 1,3 2,3l-107 43c-3,1 -6,0 -6,-2l-1 -3c-1,-2 0,-5 2,-6l107 -43z"/>
   <path class="fil1" d="M23 149l111 -43 1 1c-1,1 -1,1 -1,2l-108 43c-3,1 -5,4 -4,7l2 3c1,3 4,4 7,3l108 -43c0,1 1,1 2,1l1 2 -111 44c-4,1 -9,-1 -10,-5l-2 -4c-2,-4 0,-9 4,-11z"/>
   <path class="fil1" d="M32 96l111 -44 1 1c-1,1 -1,1 -1,2l-108 43c-3,1 -5,4 -3,7l1 3c1,3 4,4 7,3l108 -43c1,1 1,1 2,1l1 2 -111 44c-4,1 -9,-1 -10,-5l-2 -4c-2,-4 0,-9 4,-10z"/>
  </g>
  <path class="fil1" d="M196 119l7 0 0 -2 -4 0 0 -4 3 0 0 -2 -3 0 0 -4 3 0 0 -2 -6 0 0 14zm10 0l6 0 0 -2 -3 0 0 -12 -3 0 0 14zm9 0l6 0 0 -2 -3 0 0 -4 3 0 0 -2 -3 0 0 -4 3 0 0 -2 -6 0 0 14zm20 -4l-1 -1c-1,1 -1,2 -1,2 -1,1 -1,1 -2,1 -1,0 -2,0 -2,-2 -1,-1 -1,-2 -1,-3 0,-1 0,-2 1,-3 0,-2 1,-2 1,-3 1,0 1,0 1,0 0,0 1,1 1,1 1,1 1,1 1,2l2 -1c-1,-1 -2,-2 -2,-3 -1,0 -1,0 -2,0 0,0 -1,0 -1,0 -1,0 -2,1 -3,2 -1,1 -2,3 -2,5 0,0 0,0 0,0 0,1 0,1 0,1 0,2 1,3 2,4 1,1 2,2 3,2 1,0 2,0 3,-1 1,0 1,-1 2,-3zm5 4l2 0 0 -12 3 0 0 -2 -8 0 0 2 3 0 0 12zm8 0l2 0 0 -12c1,0 2,0 2,0 1,0 1,1 1,2 0,0 0,0 0,0 0,0 0,0 0,0 0,1 0,1 0,1 0,1 0,1 -1,1 0,0 0,1 0,1 0,0 -1,0 -1,0 0,0 0,0 0,0 0,0 0,0 -1,0l3 7 3 0 -2 -6c0,0 1,-1 1,-1 1,-1 1,-2 1,-3 0,-1 -1,-2 -1,-3 -1,-1 -2,-1 -3,-1l-4 0 0 14zm13 0l0 -14 -2 0 0 14 2 0zm13 -4l-1 -1c0,1 -1,2 -1,2 -1,1 -1,1 -2,1 -1,0 -1,0 -2,-2 0,-1 -1,-2 -1,-3 0,-1 1,-2 1,-3 0,-2 1,-2 2,-3 0,0 0,0 0,0 1,0 1,1 2,1 0,1 0,1 1,2l1 -1c-1,-1 -1,-2 -2,-3 0,0 -1,0 -2,0 0,0 0,0 -1,0 -1,0 -2,1 -3,2 -1,1 -1,3 -1,5 0,0 0,0 0,0 0,1 0,1 0,1 0,2 0,3 1,4 1,1 2,2 4,2 1,0 2,0 2,-1 1,0 2,-1 2,-3zm9 4l2 0 0 -6 2 0c1,0 2,0 2,-1 1,0 1,-1 1,-2 0,0 0,-1 0,-1 0,-1 0,-2 -1,-3 -1,-1 -2,-1 -3,-1l-3 0 0 14zm4 -12c0,0 0,1 0,1 1,0 1,1 1,1 0,1 -1,2 -1,2 0,0 -1,0 -2,0l0 -4c0,0 1,0 1,0 0,0 0,0 1,0zm11 -2c-2,0 -3,0 -4,2 -1,1 -1,3 -1,5 0,2 0,3 1,5 1,1 2,2 4,2 2,0 3,-1 4,-2 1,-2 1,-3 1,-5 0,-2 0,-4 -1,-5 -1,-2 -2,-2 -4,-2zm-2 4c0,-1 1,-2 1,-2 0,0 1,-1 1,-1 0,0 1,1 1,1 0,0 1,0 1,1 0,1 0,1 0,2 0,0 0,1 0,2 0,0 0,0 0,1 0,0 0,0 0,1 0,1 0,1 -1,2 0,1 0,1 -1,1 0,0 0,0 -1,0 0,0 0,0 0,0 0,-1 -1,-1 -1,-2 0,-1 0,-2 0,-3 0,-1 0,-2 0,-3zm18 10l4 -14 -1 0 -2 7 -2 -7 -3 0 1 5 0 3 -2 -8 -3 0 4 14 2 -7 2 7zm7 0l6 0 0 -2 -3 0 0 -4 3 0 0 -2 -3 0 0 -4 3 0 0 -2 -6 0 0 14zm10 0l3 0 0 -12c1,0 1,0 1,0 1,0 1,1 1,2 0,0 0,0 0,0 0,0 0,0 0,0 0,1 0,1 0,1 0,1 0,1 0,1 0,0 -1,1 -1,1 0,0 0,0 0,0 -1,0 -1,0 -1,0 0,0 0,0 0,0l2 7 3 0 -2 -6c1,0 1,-1 1,-1 1,-1 1,-2 1,-3 0,-1 0,-2 -1,-3 -1,-1 -2,-1 -3,-1l-4 0 0 14zm17 -14l0 9c0,1 0,1 0,2 0,0 0,1 1,2 0,0 1,0 1,1 1,0 1,0 2,0 2,0 4,-2 4,-5l0 -9 -2 0 0 8c0,2 0,3 0,3 -1,1 -1,1 -2,1 0,0 -1,-1 -1,-1 0,-1 0,-2 0,-3l0 -8 -3 0zm11 14l2 0 0 -10 4 10 2 0 0 -14 -2 0 0 7 -3 -7 -3 0 0 14zm13 0l0 -14 -2 0 0 14 2 0zm8 0l4 -14 -2 0 -2 7 -2 -7 -2 0 4 14zm6 0l6 0 0 -2 -3 0 0 -4 3 0 0 -2 -3 0 0 -4 3 0 0 -2 -6 0 0 14zm10 0l3 0 0 -12c1,0 1,0 2,0 0,0 1,1 1,2 0,0 0,0 0,0 0,0 0,0 0,0 0,1 0,1 -1,1 0,1 0,1 0,1 0,0 0,1 -1,1 0,0 0,0 0,0 0,0 0,0 -1,0 0,0 0,0 0,0l2 7 3 0 -2 -6c1,0 1,-1 2,-1 0,-1 0,-2 0,-3 0,-1 0,-2 -1,-3 -1,-1 -1,-1 -3,-1l-4 0 0 14zm13 -4l-2 1c1,1 1,2 2,2 0,1 1,1 2,1 0,0 1,0 1,-1 1,0 1,-1 2,-1 0,-1 0,-2 0,-2 0,-1 0,-1 0,-1 0,0 0,0 0,0 0,-1 0,-1 -1,-2 0,0 0,-1 -1,-1 0,-1 -1,-1 -1,-1 -1,0 -1,-1 -1,-2 0,0 0,0 0,0 0,0 0,-1 0,-1 0,0 1,-1 1,-1 0,0 1,1 1,1 0,0 0,0 0,0 0,1 1,1 1,1l1 -1c-1,-1 -1,-1 -1,-2 -1,0 -2,0 -2,0 -1,0 -2,0 -3,1 0,1 -1,2 -1,3 0,1 1,2 1,2 0,1 1,1 1,2 1,0 1,0 1,1 1,0 1,1 1,1 0,0 0,0 0,1 0,0 0,0 0,1 0,0 0,0 -1,0 0,0 0,0 -1,0 0,0 0,-1 0,-1 0,0 0,0 0,-1zm11 4l0 -14 -3 0 0 14 3 0zm5 0l3 0 0 -12 2 0 0 -2 -8 0 0 2 3 0 0 12zm11 0l3 0 0 -7 2 -7 -1 0 -2 5 -2 -5 -3 0 3 7 0 7z"/>
  <g id="_794833128">
   <path class="fil1" d="M233 64c0,0 -18,1 -18,14 0,14 0,15 0,15l5 0 0 -4 8 0 0 4 5 0 0 -29zm-6 8c0,0 -7,0 -6,11l6 0c0,0 0,-11 0,-11 1,0 0,0 0,0z"/>
   <path class="fil1" d="M283 64c8,0 15,7 15,15 0,7 -7,14 -15,14 -8,0 -14,-7 -14,-14 0,-8 6,-15 14,-15zm0 7c4,0 8,3 8,8 0,4 -4,7 -8,7 -4,0 -8,-3 -8,-7 0,-5 4,-8 8,-8z"/>
   <polygon class="fil1" points="236,64 241,64 241,93 236,93 "/>
   <polygon class="fil1" points="250,64 255,64 255,76 263,76 263,64 268,64 268,93 263,93 263,80 255,80 255,93 250,93 "/>
   <polygon class="fil1" points="342,64 347,64 347,93 342,93 "/>
   <polygon class="fil1" points="391,64 396,64 396,89 402,89 402,93 394,93 394,93 391,93 "/>
   <path class="fil1" d="M367 74l0 0 0 19 -5 0 0 -19 0 0c1,-6 5,-10 10,-10 5,0 9,4 9,10l0 0 0 19 -5 0 0 -19 0 0c0,-3 -2,-5 -4,-5 -2,0 -4,2 -5,5z"/>
   <polygon class="fil1" points="349,64 354,64 354,64 361,64 361,68 354,68 354,76 361,76 361,80 354,80 354,89 361,89 361,93 352,93 352,93 349,93 "/>
   <path class="fil1" d="M322 64l5 0 0 0c7,1 12,7 12,14 0,8 -5,14 -12,15l0 0 -5 0 0 -12 -2 0 0 -5 2 0 0 -12zm5 12l2 0 0 5 -2 0 0 7c4,-1 7,-5 7,-10 0,-4 -3,-8 -7,-9l0 7z"/>
   <path class="fil1" d="M312 93c-8,-1 -14,-7 -14,-15 0,-8 6,-14 14,-14l0 5c-5,0 -9,4 -9,9 0,5 4,9 9,9l0 6z"/>
   <path class="fil1" d="M196 64l5 0 0 0c7,1 12,7 12,14 0,8 -5,14 -12,15l0 0 -5 0 0 -12 -2 0 0 -5 2 0 0 -12zm5 12l2 0 0 5 -2 0 0 7c4,-1 7,-5 7,-10 0,-4 -3,-8 -7,-9l0 7z"/>
   <path class="fil1" d="M418 83l0 0 0 -19 5 0 0 19 0 0c0,5 -4,10 -9,10 -5,0 -9,-5 -10,-10l0 0 0 -19 5 0 0 19 0 0c1,2 2,4 5,4 2,0 4,-2 4,-4z"/>
   <path class="fil1" d="M349 63l5 0c0,0 2,-1 4,-1l0 1 3 0 0 -5c0,0 -8,-1 -12,5z"/>
   <path class="fil1" d="M423 60l4 0c0,0 1,2 -1,6 -2,3 -3,3 -3,3l0 -3c0,0 2,-2 1,-2 0,-1 -1,0 -2,-1 -1,-2 1,-3 1,-3z"/>
   <polygon class="fil1" points="221,99 227,99 227,94 221,94 "/>
   <polygon class="fil1" points="281,99 286,99 286,94 281,94 "/>
   <polygon class="fil1" points="351,99 357,99 357,94 351,94 "/>
   <polygon class="fil1" points="411,99 417,99 417,94 411,94 "/>
   <path class="fil1" d="M440 93c-8,-1 -14,-7 -14,-15 0,-8 6,-14 14,-14l0 5c-5,0 -9,4 -9,9 0,5 4,9 9,9l0 6z"/>
  </g>
 </g>
</svg>
